<svg width="618" height="252" viewBox="0 0 618 252" fill="none" xmlns="http://www.w3.org/2000/svg">
<path fill-rule="evenodd" clip-rule="evenodd" d="M13 126L34.8904 49H153L93.322 126H13Z" stroke="white" stroke-width="25.7398" stroke-miterlimit="22.9256" stroke-linecap="round" stroke-linejoin="round"/>
<path fill-rule="evenodd" clip-rule="evenodd" d="M153 126L131.109 203H13L72.6778 126H153Z" stroke="white" stroke-width="25.7398" stroke-miterlimit="22.9256" stroke-linecap="round" stroke-linejoin="round"/>
<path d="M196.2 194V169.6L276.8 72L277.2 76.2L271.2 68.2L275.2 71.4H198.6V48H308.2V72.4L227.4 169.8L226.8 165.2L233.4 174.2L228.6 170.6H309.2V194H196.2ZM327.492 194V85.4H355.292V194H327.492ZM312.292 106.2V85.4H355.292V106.2H312.292ZM337.692 72.4C332.226 72.4 328.159 71 325.492 68.2C322.959 65.2667 321.692 61.6667 321.692 57.4C321.692 52.8667 322.959 49.2 325.492 46.4C328.159 43.6 332.226 42.2 337.692 42.2C343.159 42.2 347.159 43.6 349.692 46.4C352.226 49.2 353.492 52.8667 353.492 57.4C353.492 61.6667 352.226 65.2667 349.692 68.2C347.159 71 343.159 72.4 337.692 72.4ZM377.331 194V85.4H399.331V132H397.331C397.331 120.933 398.798 111.733 401.731 104.4C404.665 96.9333 408.998 91.3333 414.731 87.6C420.598 83.8667 427.865 82 436.531 82H437.731C450.665 82 460.465 86.2 467.131 94.6C473.798 102.867 477.131 115.267 477.131 131.8V194H449.331V129.4C449.331 122.733 447.398 117.333 443.531 113.2C439.798 109.067 434.598 107 427.931 107C421.131 107 415.598 109.133 411.331 113.4C407.198 117.533 405.131 123.133 405.131 130.2V194H377.331ZM539.419 236.8C534.219 236.8 528.885 236.6 523.419 236.2C518.085 235.8 513.085 235.267 508.419 234.6V211.4C513.219 211.933 518.352 212.4 523.819 212.8C529.285 213.333 534.419 213.6 539.219 213.6C548.152 213.6 555.352 212.533 560.819 210.4C566.419 208.267 570.485 204.867 573.019 200.2C575.685 195.667 577.019 189.867 577.019 182.8V161.4L583.019 147.8C582.619 157.8 580.552 166.333 576.819 173.4C573.085 180.333 568.019 185.667 561.619 189.4C555.219 193 547.819 194.8 539.419 194.8C531.952 194.8 525.152 193.4 519.019 190.6C513.019 187.8 507.819 183.933 503.419 179C499.152 174.067 495.819 168.267 493.419 161.6C491.019 154.933 489.819 147.8 489.819 140.2V136C489.819 128.4 491.019 121.333 493.419 114.8C495.952 108.133 499.485 102.333 504.019 97.4C508.552 92.4667 513.952 88.6667 520.219 86C526.485 83.3333 533.419 82 541.019 82C549.952 82 557.685 83.9333 564.219 87.8C570.885 91.6667 576.085 97.2667 579.819 104.6C583.552 111.933 585.619 120.933 586.019 131.6L581.219 132.4V85.4H603.219V181.2C603.219 194.4 600.952 205.067 596.419 213.2C591.885 221.333 584.885 227.267 575.419 231C566.085 234.867 554.085 236.8 539.419 236.8ZM547.419 171C552.752 171 557.619 169.8 562.019 167.4C566.419 165 569.952 161.533 572.619 157C575.285 152.467 576.619 147 576.619 140.6V133.6C576.619 127.467 575.219 122.267 572.419 118C569.752 113.733 566.219 110.533 561.819 108.4C557.419 106.133 552.619 105 547.419 105C541.552 105 536.352 106.4 531.819 109.2C527.419 111.867 523.952 115.667 521.419 120.6C518.885 125.533 517.619 131.4 517.619 138.2C517.619 144.867 518.885 150.667 521.419 155.6C523.952 160.533 527.419 164.333 531.819 167C536.352 169.667 541.552 171 547.419 171Z" fill="white"/>
</svg>
