<svg width="439" height="174" viewBox="0 0 439 174" fill="none" xmlns="http://www.w3.org/2000/svg">
<path fill-rule="evenodd" clip-rule="evenodd" d="M9 87L24.1078 33.8582H105.622L64.4346 87H9Z" stroke="white" stroke-width="17.7644" stroke-miterlimit="22.9256" stroke-linecap="round" stroke-linejoin="round"/>
<path fill-rule="evenodd" clip-rule="evenodd" d="M105.622 87L90.5137 140.142H9L50.1869 87H105.622Z" stroke="white" stroke-width="17.7644" stroke-miterlimit="22.9256" stroke-linecap="round" stroke-linejoin="round"/>
<path d="M146.755 134V117.16L202.381 49.8012L202.657 52.6998L198.516 47.1786L201.277 49.3871H148.411V33.2375H224.052V50.0772L168.288 117.298L167.873 114.124L172.428 120.335L169.116 117.85H224.742V134H146.755ZM237.367 134V59.0492H256.553V134H237.367ZM226.876 73.4044V59.0492H256.553V73.4044H226.876ZM244.406 50.0772C240.633 50.0772 237.827 49.111 235.986 47.1786C234.238 45.1541 233.364 42.6696 233.364 39.7249C233.364 36.5962 234.238 34.0656 235.986 32.1332C237.827 30.2008 240.633 29.2346 244.406 29.2346C248.179 29.2346 250.94 30.2008 252.688 32.1332C254.436 34.0656 255.311 36.5962 255.311 39.7249C255.311 42.6696 254.436 45.1541 252.688 47.1786C250.94 49.111 248.179 50.0772 244.406 50.0772ZM271.763 134V59.0492H286.947V91.2104H285.566C285.566 83.5727 286.579 77.2233 288.603 72.1622C290.627 67.009 293.618 63.1441 297.575 60.5676C301.624 57.991 306.639 56.7027 312.62 56.7027H313.449C322.375 56.7027 329.138 59.6014 333.739 65.3986C338.34 71.1039 340.641 79.6618 340.641 91.0724V134H321.454V89.416C321.454 84.815 320.12 81.0882 317.451 78.2355C314.875 75.3829 311.286 73.9566 306.685 73.9566C301.992 73.9566 298.173 75.4289 295.228 78.3736C292.376 81.2262 290.95 85.0911 290.95 89.9681V134H271.763ZM383.629 163.539C380.04 163.539 376.359 163.401 372.586 163.125C368.905 162.848 365.455 162.48 362.234 162.02V146.009C365.547 146.377 369.089 146.699 372.862 146.975C376.635 147.343 380.178 147.527 383.491 147.527C389.656 147.527 394.625 146.791 398.398 145.319C402.263 143.846 405.069 141.5 406.818 138.279C408.658 135.15 409.578 131.147 409.578 126.27V111.501L413.719 102.115C413.443 109.016 412.017 114.906 409.44 119.783C406.864 124.568 403.367 128.249 398.95 130.825C394.533 133.31 389.426 134.552 383.629 134.552C378.475 134.552 373.782 133.586 369.549 131.653C365.409 129.721 361.82 127.052 358.783 123.648C355.838 120.243 353.538 116.24 351.882 111.639C350.225 107.038 349.397 102.115 349.397 96.8697V93.971C349.397 88.7259 350.225 83.8488 351.882 79.3398C353.63 74.7387 356.068 70.7358 359.197 67.3311C362.326 63.9263 366.053 61.3037 370.378 59.4633C374.703 57.6229 379.488 56.7027 384.733 56.7027C390.898 56.7027 396.235 58.037 400.744 60.7056C405.345 63.3742 408.934 67.2391 411.511 72.3002C414.087 77.3613 415.514 83.5727 415.79 90.9344L412.477 91.4865V59.0492H427.66V125.166C427.66 134.276 426.096 141.638 422.967 147.251C419.839 152.864 415.008 156.959 408.474 159.536C402.033 162.204 393.751 163.539 383.629 163.539ZM389.15 118.126C392.831 118.126 396.189 117.298 399.226 115.642C402.263 113.986 404.701 111.593 406.542 108.464C408.382 105.336 409.302 101.563 409.302 97.1458V92.3147C409.302 88.0817 408.336 84.4929 406.404 81.5483C404.563 78.6036 402.125 76.3951 399.088 74.9228C396.051 73.3584 392.739 72.5763 389.15 72.5763C385.101 72.5763 381.512 73.5425 378.383 75.4749C375.347 77.3153 372.954 79.9379 371.206 83.3427C369.457 86.7474 368.583 90.7963 368.583 95.4894C368.583 100.09 369.457 104.093 371.206 107.498C372.954 110.903 375.347 113.525 378.383 115.366C381.512 117.206 385.101 118.126 389.15 118.126Z" fill="white"/>
</svg>
