<svg width="282" height="135" viewBox="0 0 282 135" fill="none" xmlns="http://www.w3.org/2000/svg">
<path d="M0.754939 105V88.1602L56.3814 20.8012L56.6575 23.6998L52.5165 18.1786L55.2771 20.3871H2.41131V4.23745H78.0522V21.0772L22.2878 88.2983L21.8737 85.1236L26.4287 91.3349L23.1159 88.8504H78.7424V105H0.754939ZM91.3668 105V30.0492H110.553V105H91.3668ZM80.8765 44.4044V30.0492H110.553V44.4044H80.8765ZM98.4064 21.0772C94.6336 21.0772 91.8269 20.111 89.9865 18.1786C88.2381 16.1541 87.3639 13.6696 87.3639 10.7249C87.3639 7.5962 88.2381 5.06564 89.9865 3.1332C91.8269 1.20077 94.6336 0.234551 98.4064 0.234551C102.179 0.234551 104.94 1.20077 106.688 3.1332C108.437 5.06564 109.311 7.5962 109.311 10.7249C109.311 13.6696 108.437 16.1541 106.688 18.1786C104.94 20.111 102.179 21.0772 98.4064 21.0772ZM125.763 105V30.0492H140.947V62.2104H139.567C139.567 54.5727 140.579 48.2233 142.603 43.1622C144.628 38.009 147.618 34.1441 151.575 31.5676C155.624 28.991 160.639 27.7027 166.621 27.7027H167.449C176.375 27.7027 183.138 30.6014 187.739 36.3986C192.34 42.1039 194.641 50.6618 194.641 62.0724V105H175.455V60.416C175.455 55.815 174.12 52.0882 171.452 49.2355C168.875 46.3829 165.286 44.9566 160.685 44.9566C155.992 44.9566 152.173 46.4289 149.229 49.3736C146.376 52.2262 144.95 56.0911 144.95 60.9681V105H125.763ZM237.629 134.539C234.04 134.539 230.359 134.401 226.586 134.125C222.906 133.848 219.455 133.48 216.234 133.02V117.009C219.547 117.377 223.09 117.699 226.862 117.975C230.635 118.343 234.178 118.527 237.491 118.527C243.656 118.527 248.625 117.791 252.398 116.319C256.263 114.846 259.07 112.5 260.818 109.279C262.658 106.15 263.579 102.147 263.579 97.2703V82.501L267.72 73.1149C267.444 80.0164 266.017 85.9057 263.441 90.7828C260.864 95.5679 257.367 99.2487 252.95 101.825C248.533 104.31 243.426 105.552 237.629 105.552C232.476 105.552 227.783 104.586 223.55 102.653C219.409 100.721 215.82 98.0524 212.783 94.6477C209.839 91.2429 207.538 87.24 205.882 82.639C204.225 78.038 203.397 73.1149 203.397 67.8697V64.971C203.397 59.7259 204.225 54.8488 205.882 50.3398C207.63 45.7387 210.069 41.7358 213.197 38.3311C216.326 34.9263 220.053 32.3037 224.378 30.4633C228.703 28.6229 233.488 27.7027 238.733 27.7027C244.899 27.7027 250.236 29.037 254.745 31.7056C259.346 34.3742 262.935 38.2391 265.511 43.3002C268.088 48.3613 269.514 54.5727 269.79 61.9344L266.477 62.4865V30.0492H281.661V96.166C281.661 105.276 280.096 112.638 276.968 118.251C273.839 123.864 269.008 127.959 262.474 130.536C256.033 133.204 247.751 134.539 237.629 134.539ZM243.15 89.1264C246.831 89.1264 250.19 88.2983 253.226 86.6419C256.263 84.9855 258.702 82.593 260.542 79.4643C262.382 76.3356 263.303 72.5627 263.303 68.1458V63.3147C263.303 59.0817 262.336 55.4929 260.404 52.5483C258.564 49.6036 256.125 47.3951 253.088 45.9228C250.052 44.3584 246.739 43.5763 243.15 43.5763C239.101 43.5763 235.512 44.5425 232.384 46.4749C229.347 48.3153 226.954 50.9379 225.206 54.3427C223.458 57.7474 222.584 61.7963 222.584 66.4894C222.584 71.0904 223.458 75.0933 225.206 78.4981C226.954 81.9028 229.347 84.5254 232.384 86.3658C235.512 88.2062 239.101 89.1264 243.15 89.1264Z" fill="white"/>
</svg>
